<?xml version="1.0" encoding="UTF-8"?>
<svg id="Layer_1" xmlns="http://www.w3.org/2000/svg" xmlns:xlink="http://www.w3.org/1999/xlink" version="1.1" viewBox="0 0 16 16">
  <!-- Generator: Adobe Illustrator 30.1.0, SVG Export Plug-In . SVG Version: 2.1.1 Build 136)  -->
  <defs>
    <style>
      .st0 {
        fill: url(#SL);
      }

      .st1 {
        fill: url(#linear-gradient);
      }
    </style>
    <linearGradient id="linear-gradient" x1="4.79" y1="1.46" x2="38.54" y2="17.63" gradientUnits="userSpaceOnUse">
      <stop offset=".07" stop-color="#fac514"/>
      <stop offset=".27" stop-color="#ff4724"/>
      <stop offset=".71" stop-color="#00adee"/>
    </linearGradient>
    <linearGradient id="SL" x1="-2.91" y1="10.3" x2="20.42" y2="12.57" gradientUnits="userSpaceOnUse">
      <stop offset="0" stop-color="#fac514"/>
      <stop offset=".33" stop-color="#ff4724"/>
      <stop offset=".71" stop-color="#00adee"/>
    </linearGradient>
  </defs>
  <path class="st1" d="M12.26,3c-2.84.16-4.04,1.08-4.27,3-.23-1.92-1.42-2.83-4.27-3,2.84-.16,4.04-1.08,4.27-3,.23,1.92,1.42,2.83,4.27,3Z"/>
  <path class="st0" d="M15.56,11.36c-.09-.11-.18-.21-.29-.32,0,0,0,0-.01-.01-.03-.03-.07-.06-.1-.09-.01-.01-.03-.02-.04-.03-.06-.05-.11-.09-.17-.14-.02-.02-.04-.03-.06-.05-.03-.02-.06-.05-.1-.07-.03-.02-.05-.04-.08-.06-.03-.02-.06-.04-.1-.06,0,0,0,0,0,0-.54-.34-1.21-.64-1.99-.88v-.95c2.07.73,3.02,1.63,3.22,2.21.1-.22.16-.45.16-.69,0-1.93-3.58-3.49-8-3.49S0,8.29,0,10.22c0,.24.05.47.16.69,0,0,0,0,0,0,0,0,0,0,0,0,.22-.59,1.74-1.78,3.4-2.27v.96c-.85.25-1.58.57-2.16.93,0,0,0,0,0,0-.03.02-.06.04-.1.06-.03.02-.06.04-.08.06-.03.02-.06.05-.1.07-.02.02-.04.03-.06.05-.06.05-.12.09-.17.14-.01.01-.03.02-.04.03-.03.03-.07.06-.1.09,0,0,0,0-.01.01-.11.1-.21.21-.29.32,0,0,0,0,0,0C.16,11.72,0,12.11,0,12.51,0,14.44,3.58,16,8,16s8-1.56,8-3.49c0-.4-.16-.78-.44-1.14,0,0,0,0,0,0ZM8.52,8c1.1.03,2.17.18,3.11.41v.98c-.94-.21-2-.34-3.11-.37v-1.02ZM4.54,8.37c.81-.19,1.7-.31,2.62-.35v1.02c-.93.04-1.81.15-2.62.32v-.99ZM13.15,13.82c-1.34.58-3.21.92-5.15.92s-3.81-.33-5.15-.92c-1.09-.48-1.58-1.01-1.58-1.31,0-.09.04-.19.13-.31.09-.12.22-.25.4-.39,0,0,.01,0,.02-.01.04-.03.08-.06.12-.09,0,0,.02-.01.02-.02.05-.03.09-.06.14-.09,0,0,0,0,.01,0,.11-.07.24-.14.38-.21.11-.06.23-.11.36-.17,1.34-.58,3.21-.92,5.15-.92s3.82.33,5.15.92c.13.06.25.11.36.17.14.07.27.14.38.21,0,0,0,0,.01,0,.05.03.1.06.14.09,0,0,.02.01.02.02.04.03.08.06.12.09,0,0,.01,0,.02.01.18.14.31.27.4.39.09.12.13.23.13.31,0,.3-.5.84-1.58,1.31Z"/>
</svg>