<?xml version="1.0" encoding="UTF-8"?>
<svg id="Layer_1" xmlns="http://www.w3.org/2000/svg" version="1.1" viewBox="0 0 139.54 82.1">
  <!-- Generator: Adobe Illustrator 30.1.0, SVG Export Plug-In . SVG Version: 2.1.1 Build 136)  -->
  <defs>
    <style>
      .st0 {
        fill: #00adee;
      }

      .st1 {
        fill: #ff4724;
      }

      .st2 {
        fill: #fac514;
      }
    </style>
  </defs>
  <g>
    <path d="M96.1,76.01c-.85.12-1.46-.34-1.59-1.09-.41-2.41,2.46-1.87,2.46-4.43v-22.71c0-2.43-2.64-1.48-2.52-3.56.05-.89.59-1.63,1.5-1.76l5.31-.76c.95-.14,1.77.27,2.18,1.19l6.14,13.85c.05.11.3.24.41.25s.32-.27.32-.41v-10.6c0-2.05-2.06-1.86-2.54-2.75-.55-1.01.12-2.43,1.28-2.6l6.1-.88c.8-.12,1.41.38,1.53,1.12.4,2.4-2.46,1.76-2.46,4.55v19.2s.02,6.43.02,6.43c0,.74-.21,1.56-.6,2.14-.63.93-2.5,1.15-3.09.69-.77-.6-.02-2.58-1.43-5.71l-7.53-16.75c-.2,0-.38-.03-.45.03-.09.07-.22.34-.22.46v18.02c0,2.17,2.46,1.45,2.99,2.8.4,1.02-.37,2.2-1.48,2.36l-6.32.93Z"/>
    <path d="M119.68,72.64c-.6.09-1.19-.18-1.4-.62-.48-1.04-.07-2.12.88-2.72.87-.55,1.42-1.31,1.42-2.46v-22.45c0-2.25-2.39-1.46-2.39-3.42,0-1.08.72-1.77,1.77-1.91l9.06-1.21c3.38-.45,6.41,1.34,8.11,4.2,2.94,4.96,2.84,12.94,1.6,18.4-1.2,5.25-4.78,10.09-10.29,10.91l-8.74,1.3ZM133.76,60.02c.69-4.74.44-12.72-2.75-16.56-1.17-1.41-2.91-2-4.63-1.31-.32.13-.59.69-.59,1.09l-.02,16.54v6.36c.01.92.65,1.54,1.56,1.52,4.09-.12,5.91-4.09,6.42-7.64Z"/>
    <path d="M84.12,67.79l-6.18.88c-.35.05-.74.31-.83.68-.35,1.48-.56,2.93-.66,4.44-.12,1.82,2.22,1.15,2.23,3.11,0,.65-.3,1.62-1.12,1.74l-5.93.87c-.54.08-1-.28-1.12-.8-.19-.86.15-1.76.8-2.36s1.11-1.36,1.25-2.34c1.03-7.6,2.58-15.02,4.61-22.42.56-2.05,1.12-3.93,1.83-5.92.16-.43.68-.98,1.11-1.04l2.81-.36c.53-.07,1.12.14,1.35.74,2.08,5.46,3.75,11,4.92,16.75l2.05,10.13c.12.57.51,1.2.98,1.49,1.02.62,1.31,1.91.55,2.84-.15.19-.63.37-.88.4l-7.33,1.05c-.29.04-.74-.06-.93-.21-.76-.64-.49-2.18.86-3.1.64-.44,1.09-1.03,1-1.86-.16-1.44-.39-2.82-.7-4.25-.06-.28-.43-.48-.69-.44ZM83.43,64.12c.3-.05.45-.36.48-.68-.76-3.71-1.59-7.3-2.75-10.89-.05-.16-.27-.37-.4-.39s-.38.24-.42.39c-1.08,3.93-1.87,7.82-2.51,11.84-.02.1.07.37.15.43.06.05.28.08.37.07l5.08-.77Z"/>
    <path d="M69.95,71.64c-.12,2.34-.55,4.49-1.12,6.68-.23.87-.85,1.7-1.79,1.84l-13.29,1.92c-.79.11-1.43-.14-1.61-1-.53-2.43,2.37-1.93,2.37-4.69l-.02-22.69c0-.92-.58-1.6-1.34-1.87-.88-.31-1.28-1.14-1.04-2.02.22-.78.81-1.28,1.62-1.4l7.45-1.03c.48-.07,1.04.14,1.3.44.29.33.41.86.35,1.35-.24,1.86-3.16,1.52-3.15,4.33l.02,8.37.03,13.72c0,.41.27.96.49,1.18.3.31.84.38,1.3.35,2.82-.21,3.77-2.15,5.28-4.44.56-.85,1.6-2.47,2.63-2.03.25.1.57.54.55.96Z"/>
  </g>
  <g>
    <path d="M44.2,32.18c-.46.07-.84.37-.93.8-.3,1.4-.49,2.77-.61,4.21-.17,2.08,2.33,1.15,2.22,3.41-.04.84-.55,1.51-1.4,1.63l-5.55.79c-.71.1-1.23-.42-1.25-1.11-.07-2.13,1.77-1.98,2.11-4.41,1.03-7.53,2.55-14.87,4.56-22.21.58-2.14,1.16-4.13,1.91-6.16.25-.67.81-1,1.45-1.08l2.35-.3c.73-.09,1.25.18,1.52.91,1.73,4.62,3.26,9.25,4.27,14.11l2.54,12.28c.49,2.35,2.13,1.82,2.03,3.54-.03.46-.28,1.37-.94,1.47l-7.71,1.13c-.32.05-.79-.11-.99-.3-.18-.17-.32-.62-.32-.93,0-2.19,2.52-1.95,2.26-4.08-.17-1.38-.39-2.69-.68-4.06-.07-.33-.47-.55-.79-.51l-6.04.86ZM49.62,27.64c.35-.05.53-.46.47-.75-.74-3.7-1.58-7.27-2.72-10.86-.04-.14-.32-.36-.45-.34-.11.02-.32.22-.36.34-1.09,3.9-1.9,7.86-2.52,11.88-.01.08.06.34.11.4s.26.12.34.11l5.12-.77Z"/>
    <path d="M11.34,46.91c-2.96,1.37-7.55,1.08-10.09-1.32-.88-.83-1.41-1.78-1.2-3.04s1.77-4.47,2.94-4.27c1.05.19.91,2.7,3.45,4.7,1.9,1.49,4.48,1.04,5.7-1.08,1.08-1.88.96-4.39-.42-6.12-2-2.53-5.11-2.84-8.08-5.13-1.35-1.04-2.46-2.32-2.98-3.96-1.52-4.78.5-9.94,4.83-12.46,2.73-1.59,6.01-1.67,8.78-.23,1.6.83,3.27,2.44,2.65,4.47-.31.99-1.51,3.72-2.6,3.65-.21-.01-.57-.3-.68-.51-.66-1.37-1.37-2.56-2.4-3.65-1.41-1.49-3.64-1.58-5.03.03-1.99,2.29-1.42,5.84,1.12,7.52s3.98,1.68,6.48,3.46c2.23,1.58,3.52,3.84,3.83,6.55.55,4.76-1.93,9.39-6.29,11.4Z"/>
    <path d="M92.18,8.8c-2.22-4.19-5.92-3.57-7.35-2.17-1.92,1.87-1.87,5.18.09,7.05,1.08,1.02,2.32,1.65,3.68,2.21,3.89,1.61,6.77,3.92,7.31,8.33.58,4.75-1.81,9.38-6.19,11.44-2.6,1.22-5.62,1.13-8.26-.05-.82-.37-1.4-.87-1.99-1.41-.98-.91-1.33-2.21-.87-3.51.33-.95,1.67-3.76,2.76-3.6s.98,2.93,3.63,4.83c1.86,1.34,4.29.82,5.45-1.2,1.06-1.83.99-4.27-.29-6.01-1.82-2.48-5.07-2.93-8.03-5.18-1.44-1.09-2.59-2.47-3.1-4.23-1.43-5.01.93-10.33,5.62-12.57,3.2-1.53,7.3-1.03,9.83,1.58.73.75,1.08,1.76.82,2.8"/>
    <path d="M23.21,42.8c.75-1.55,2.9-1.27,2.9-3.66v-19.45s-.05-3.85-.05-3.85c0-.47-.48-.83-.93-.71-3.15.89-4.03,6.4-5.95,5.76-1.31-.44.02-6.42.38-7.64.26-.88.9-1.41,1.77-1.53l15.02-2.11c.65-.09,1.26.35,1.43.96.59,2.11.95,4.25,1,6.48,0,.31-.26.81-.43,1s-.71.34-.98.23c-1.81-.72-2.64-4.25-4.96-4.16-.65.02-1.13.45-1.13,1.15v23.32c0,2.1,2.47,1.48,2.97,2.81.39,1.06-.44,2.21-1.56,2.37l-7.98,1.14c-.49.07-1.06-.23-1.31-.5-.33-.36-.46-1.05-.19-1.61Z"/>
    <path d="M63.42,39.37c-.55.08-1.1-.17-1.35-.44-.33-.34-.45-.95-.3-1.45.47-1.61,2.96-1.47,2.96-3.75V10.47c0-.27-.21-.66-.39-.76-.98-.51-2.56,1.22-3.17,2.15l-1.86,2.87c-.28.44-.89.81-1.42.67-1.37-.36,0-6.39.31-7.54.2-.73.78-1.47,1.59-1.58l15.11-2.14c.7-.1,1.31.27,1.5.97.57,2.06.92,4.16.99,6.32.01.35-.18.78-.35,1.03-.16.23-.68.47-1.03.34-.61-.24-1.08-.75-1.48-1.27-.89-1.17-2.38-3.59-4.14-2.69-.27.14-.49.65-.49,1.04v23.12c0,2.32,2.53,1.45,2.97,2.95.3,1.02-.47,2.13-1.57,2.29l-7.88,1.14Z"/>
  </g>
  <path class="st2" d="M132.31,12.74c-9.75,2.18-14.05,7.42-14.82,16.91-.84-10.07-5-13.31-14.82-12.74,9.75-2.18,14.05-7.42,14.82-16.91.84,10.07,5.01,13.31,14.82,12.74Z"/>
  <polygon class="st2" points="42.95 54.5 .39 64.97 42.95 61.43 42.95 54.5"/>
  <polygon class="st1" points="42.91 70 .36 73.54 42.91 63.07 42.91 70"/>
  <polygon class="st0" points="42.95 78.56 .39 82.1 42.95 71.62 42.95 78.56"/>
</svg>